PathFileType	4	(X/Y/Z)	C:\Users\Basilio\Documents\Thesis Gigler\squatting_fais\c3dfiles\076\SJ_pre1\markers_experimental.trc
DataRate	CameraRate	NumFrames	NumMarkers	Units	OrigDataRate	OrigDataStartFrame	OrigNumFrames
200.000000	200.000000	4	61	mm	200.000000	459	1226
Frame#	Time	FHD			LBHD			RBHD			C7			T10			CLAV			LSHO			LUUPA			LMUPA			LDUPA			LLEP			LMEP			LRAD			LUL			LRFIN			RSHO			RUPA1			RMUPA			RDUPA			RLEP			RMEP			RRAD			RUL			RUFIN			LASI			RASI			USACR			LSACR			RSACR			LTHI1			LTHI2			LTHI3			LTHI4			LLFC			LMFC			LTIB1			LTIB2			LTIB3			LTIB4			LLMAL			LMMAL			LHEE			LMT1			LMT2			LMT5			RTHI			RTHI2			RTHI3			RTHI4			RLFC			RMFC			RTIB1			RTIB2			RTIB3			RTIB4			RLMAL			RMMAL			RHEE			RMT1			RMT2			RMT5			
		X1	Y1	Z1	X2	Y2	Z2	X3	Y3	Z3	X4	Y4	Z4	X5	Y5	Z5	X6	Y6	Z6	X7	Y7	Z7	X8	Y8	Z8	X9	Y9	Z9	X10	Y10	Z10	X11	Y11	Z11	X12	Y12	Z12	X13	Y13	Z13	X14	Y14	Z14	X15	Y15	Z15	X16	Y16	Z16	X17	Y17	Z17	X18	Y18	Z18	X19	Y19	Z19	X20	Y20	Z20	X21	Y21	Z21	X22	Y22	Z22	X23	Y23	Z23	X24	Y24	Z24	X25	Y25	Z25	X26	Y26	Z26	X27	Y27	Z27	X28	Y28	Z28	X29	Y29	Z29	X30	Y30	Z30	X31	Y31	Z31	X32	Y32	Z32	X33	Y33	Z33	X34	Y34	Z34	X35	Y35	Z35	X36	Y36	Z36	X37	Y37	Z37	X38	Y38	Z38	X39	Y39	Z39	X40	Y40	Z40	X41	Y41	Z41	X42	Y42	Z42	X43	Y43	Z43	X44	Y44	Z44	X45	Y45	Z45	X46	Y46	Z46	X47	Y47	Z47	X48	Y48	Z48	X49	Y49	Z49	X50	Y50	Z50	X51	Y51	Z51	X52	Y52	Z52	X53	Y53	Z53	X54	Y54	Z54	X55	Y55	Z55	X56	Y56	Z56	X57	Y57	Z57	X58	Y58	Z58	X59	Y59	Z59	X60	Y60	Z60	X61	Y61	Z61	

460	2.295	41.15503692626954	1118.237670898438	-885.5662841796877	-111.4264755249024	1086.21728515625	-984.0903930664065	-97.66318511962893	1086.957153320313	-831.8249511718752	-182.3256225585938	1030.61083984375	-909.6748046875002	-431.0097961425782	839.3191528320315	-928.2790527343752	-126.7075729370117	884.664001464844	-906.6868286132815	-133.8227233886719	943.1233520507815	-1074.724975585938	-227.6945037841797	845.6011962890627	-1219.299926757813	-251.4626007080079	806.9254150390627	-1207.893432617188	-270.0154113769532	811.5430908203127	-1263.869018554688	-311.5674438476563	789.5751953125002	-1298.516845703125	-374.7459411621094	849.8642578125002	-1282.90771484375	-474.2215576171876	709.9450073242189	-1135.7216796875	nan	nan	nan	-453.626678466797	651.4389038085939	-1158.841186523438	-161.1083679199219	936.976257324219	-746.7413940429689	-276.5346679687501	873.1206054687502	-602.7572021484376	-286.9749145507813	823.4245605468752	-605.5124511718751	-323.9479064941407	840.6026000976565	-560.3982543945314	-375.2392883300782	790.6257934570315	-539.7571411132814	-437.1995239257814	842.2283935546877	-579.0874633789064	-491.3659057617189	698.9762573242189	-732.5139160156251	-440.0344848632814	684.9691162109376	-752.8048095703126	-472.7369384765626	640.6492919921876	-701.7895507812501	-431.1072692871095	699.5537719726564	-1094.058715820313	nan	nan	nan	-513.0345458984376	761.5250854492189	-927.6322021484377	-538.8828125000001	745.5021972656251	-956.1690673828127	-540.5209960937501	742.6854248046876	-899.3266601562502	-455.3587646484376	585.0658569335939	-1135.0673828125	-373.3635864257813	564.6804199218751	-1134.889526367188	-347.3957214355469	594.7163085937501	-1106.191650390625	-348.7269897460938	509.5645446777345	-1143.745483398438	-230.0783996582032	408.964813232422	-1135.947631835938	-219.2418975830079	405.0827941894532	-1026.835083007813	-239.3315582275391	274.2947998046876	-1057.358764648438	-276.0407714843751	227.0583801269532	-1123.832763671875	-254.6753082275391	222.5157165527344	-1082.791137695313	-309.4974365234376	167.9728088378907	-1050.705688476563	-405.7178649902345	78.10867309570314	-1111.875244140625	-387.0909729003907	89.09274291992189	-1025.46728515625	-470.7962036132814	44.28420639038087	-1068.826416015625	-260.9909667968751	53.39448928833009	-1042.386840820313	-254.3548278808594	53.79685592651369	-1081.14453125	-271.0716857910157	42.9892692565918	-1132.660888671875	-398.9688110351564	523.6031494140626	-708.1921997070314	-331.0167541503907	524.2595214843751	-697.2700805664064	-311.6952819824219	550.0293579101564	-711.7802734375001	-284.9955139160157	452.3576965332032	-695.5615844726564	-242.7386322021485	418.2364807128907	-693.5666503906251	-220.2361297607422	414.1223144531251	-797.3804931640627	-223.3258209228516	283.4090270996094	-713.0051879882814	-321.8354492187501	239.2089538574219	-688.3161010742189	-281.6294250488282	219.5099334716797	-704.7523193359376	-290.6610717773438	176.1848754882813	-742.4934082031251	-404.6832580566407	78.25891113281251	-713.2512207031251	-382.6635437011719	88.9539031982422	-796.8869628906252	-465.9186096191407	50.97318649291994	-761.3275756835939	-257.7503662109376	51.9620933532715	-773.893981933594	-255.8276367187501	55.63691329956056	-728.4686279296876	-283.6409301757813	35.35720825195313	-675.5097045898439	
461	2.3	41.06714630126954	1118.356201171875	-885.5804443359377	-111.6130294799805	1086.404541015625	-983.3216552734377	-97.68495941162112	1087.022827148438	-831.7388916015627	-182.3562316894532	1030.672241210938	-909.6761474609377	-431.0439453125001	839.3811645507815	-928.2702636718752	-126.7911224365235	884.7481689453127	-906.6954345703127	-133.9074401855469	943.147888183594	-1074.6708984375	-227.7329559326172	845.6225585937502	-1219.284301757813	-251.4030761718751	806.9749755859377	-1207.891967773438	-270.0190734863282	811.605407714844	-1263.843383789063	-311.5852355957032	789.7092895507815	-1298.5908203125	-374.7764892578126	850.1689453125002	-1283.081420898438	-474.3848571777345	710.0235595703126	-1135.694702148438	nan	nan	nan	-453.6222534179689	651.5230102539064	-1158.878173828125	-161.1793518066407	937.0009765625002	-746.7164306640626	-276.6300048828126	873.1934814453127	-602.7642822265626	-287.0471496582032	823.4907836914065	-605.5215454101564	-324.0289916992188	840.7064208984377	-560.4271240234376	-375.3507690429688	790.682312011719	-539.7357177734376	-437.3250122070314	842.322692871094	-579.0694580078126	-491.3567504882814	699.0426635742189	-732.5416870117189	-440.0479431152345	684.9815673828126	-752.8135986328126	-472.7625122070314	640.7660522460939	-701.8700561523439	-430.9279174804689	699.5957031250001	-1094.112060546875	nan	nan	nan	-513.0546875000001	761.6008300781251	-927.6413574218752	-538.9400024414064	745.5485839843751	-956.1687011718752	-540.5658569335939	742.7959594726564	-899.3540649414065	-455.3915405273439	585.1722412109376	-1135.064697265625	-373.3949890136719	564.6928710937501	-1134.824829101563	-347.5328979492188	594.7593383789064	-1106.231323242188	-348.7408142089844	509.6104431152345	-1143.781982421875	-230.2218780517579	408.9727783203126	-1135.934448242188	-219.3113861083985	405.1636657714845	-1026.839111328125	-239.4072723388672	274.3000793457032	-1057.369995117188	-276.0314636230469	227.1481323242188	-1123.839111328125	-254.6938476562501	222.5183563232422	-1082.79736328125	-309.5112915039063	167.9734954833985	-1050.696899414063	-405.705780029297	78.10298919677736	-1111.860107421875	-387.0938720703126	89.08579254150392	-1025.465454101563	-470.8628540039064	44.33977127075196	-1068.808959960938	-261.0064392089844	53.44787597656251	-1042.388793945313	-254.3530273437501	53.75529098510744	-1081.096923828125	-271.0688171386719	43.00182723999024	-1132.651489257813	-399.0185546875001	523.6294555664064	-708.2617187500001	-331.0614929199219	524.2846069335939	-697.2799072265626	-311.7214355468751	550.0415039062501	-711.7843017578126	-285.0412597656251	452.3839721679689	-695.5954589843751	-242.7800903320313	418.2096557617189	-693.5977172851564	-220.2954711914063	414.1570129394532	-797.3996582031252	-223.5789031982422	283.4821472167969	-713.1035766601564	-321.8637695312501	239.2181396484376	-688.3164672851564	-281.6389160156251	219.5678100585938	-704.7706298828126	-290.8822021484376	176.2445831298828	-742.6058349609376	-404.6794738769532	78.20422363281251	-713.2415771484376	-382.4492797851563	88.92578125000001	-796.852966308594	-465.9364013671876	50.95960998535158	-761.3370361328126	-257.7774658203126	51.92622375488283	-773.9129638671877	-255.7817687988282	55.5693817138672	-728.4804077148439	-283.5997619628907	35.43286514282227	-675.4600830078126	
462	2.305	40.97236251831055	1118.421264648438	-885.5319824218752	-111.6395721435547	1086.638061523438	-983.2974243164065	-97.76281738281253	1087.137451171875	-831.801696777344	-182.3780517578125	1030.742431640625	-909.636901855469	-431.1272888183595	839.5063476562502	-928.2664184570315	-126.7940826416016	884.7592773437502	-906.7161865234377	-133.8607635498047	943.2225341796877	-1074.671630859375	-227.775375366211	845.6445312500002	-1219.271362304688	-251.4211883544922	807.0659179687502	-1207.879760742188	-269.9958801269532	811.6614990234377	-1263.885009765625	-311.6018676757813	789.7591552734377	-1298.551147460938	-374.7355346679688	850.0596923828127	-1283.150512695313	-474.3924255371095	710.0817260742189	-1135.72021484375	nan	nan	nan	-453.695281982422	651.5161132812501	-1158.870849609375	-161.2458648681641	937.0747680664065	-746.6940307617189	-276.7126464843751	873.2534179687502	-602.7221679687501	-287.1204528808594	823.5799560546877	-605.4602661132814	-324.0932312011719	840.787780761719	-560.4320068359376	-375.3907775878907	790.8070068359377	-539.7458496093751	-437.4510498046876	842.351989746094	-579.1170654296876	-491.4315795898439	699.1021728515626	-732.5550537109376	-440.0428466796876	685.0716552734376	-752.8602905273439	-472.8034057617189	640.8331909179689	-701.8566894531251	-431.0522766113282	699.7203979492189	-1094.165893554688	nan	nan	nan	-513.1149291992189	761.5803222656251	-927.6430664062502	-538.1243896484376	745.5321044921876	-956.619812011719	-540.6350708007814	742.6638183593751	-899.3138427734377	-455.3329467773439	585.2155761718751	-1135.080200195313	-373.4632263183594	564.7860107421876	-1134.8994140625	-347.5727539062501	594.8139038085939	-1106.251953125	-348.8185119628907	509.8868713378907	-1144.464721679688	-230.1315917968751	408.9962158203126	-1135.940673828125	-219.3118133544922	405.1931152343751	-1026.830688476563	-239.3928985595704	274.3533020019532	-1057.391357421875	-276.1778869628907	227.1706085205079	-1123.822875976563	-254.7127838134766	222.5778503417969	-1082.782592773438	-309.5175476074219	168.0295104980469	-1050.745239257813	-405.7511596679689	78.10692596435548	-1111.8681640625	-387.072235107422	89.11296844482423	-1025.499389648438	-470.8123474121095	44.29609680175782	-1068.806396484375	-260.9891357421876	53.48189926147462	-1042.377197265625	-254.269760131836	53.79942321777345	-1081.096435546875	-271.0732116699219	43.02501678466798	-1132.715576171875	-399.0439758300782	523.7171630859376	-708.1975708007814	-331.1401672363282	524.3261108398439	-697.2932128906251	-311.8641967773438	550.0256958007814	-711.7873535156251	-285.0770568847657	452.4436645507814	-695.5690307617189	-242.8694610595704	418.252166748047	-693.5587158203126	-220.3126373291016	414.2621154785157	-797.4459228515627	-223.4306030273438	283.4202575683594	-713.0612792968751	-321.8948669433594	239.2106628417969	-688.3239135742189	-281.7039794921876	219.5496978759766	-704.7654418945314	-290.9171447753907	176.3203582763672	-742.6140747070314	-404.7117004394532	78.19724273681642	-713.2479858398439	-382.4057922363282	88.90452575683595	-796.8462524414065	-465.9393310546876	50.98130416870119	-761.3356933593751	-257.7842407226563	51.93986129760744	-773.9163818359377	-255.7804565429688	55.57882308959962	-728.4711914062501	-283.6504516601563	35.39226531982423	-675.4979858398439	
463	2.31	40.97988510131837	1118.453491210938	-885.5418090820315	-111.6458435058594	1086.635131835938	-983.3650512695315	-97.76947784423831	1087.162109375	-831.7600708007815	-182.417465209961	1030.747314453125	-909.6856689453127	-431.0765075683595	839.431091308594	-928.2878417968752	-126.819091796875	884.8201904296877	-906.6672363281252	-133.9127349853516	943.3039550781252	-1074.6845703125	-227.7232818603516	845.7875976562502	-1219.265625	-251.5354461669922	807.0997314453127	-1207.90966796875	-270.1825256347657	811.7175903320315	-1263.929077148438	-311.6544494628907	789.8225097656252	-1298.577026367188	-374.6584472656251	850.0903320312502	-1283.010131835938	-474.4989013671876	710.1716308593751	-1135.743896484375	nan	nan	nan	-453.7396545410157	651.5760498046876	-1158.932373046875	-161.2800598144532	937.0984497070315	-746.7142944335939	-276.8377380371094	873.325134277344	-602.7686767578126	-287.1998291015626	823.6375122070315	-605.5059204101564	-324.2560729980469	840.8723144531252	-560.4286499023439	-375.4846496582032	790.948425292969	-539.7834472656251	-437.5454406738282	842.4561157226565	-579.1137695312501	-491.520477294922	699.1320800781251	-732.6126098632814	-440.1374816894532	685.1215820312501	-752.8342285156251	-472.8218688964845	640.8370361328126	-701.8585815429689	-431.0656738281251	699.7912597656251	-1094.157104492188	nan	nan	nan	-513.2081298828126	761.6235351562501	-927.6282348632815	-539.0045776367189	745.7161254882814	-956.198181152344	-540.6420288085939	742.9219360351564	-899.3604736328127	-455.5389099121095	585.4017333984376	-1135.196044921875	-374.4572753906251	565.1669921875001	-1135.197631835938	-347.5848693847657	594.8676147460939	-1106.26123046875	-348.9262695312501	509.8268432617189	-1143.871459960938	-230.2660675048829	409.0443420410157	-1135.958862304688	-219.412826538086	405.2071838378907	-1026.891479492188	-239.4480438232422	274.3273010253907	-1057.423461914063	-276.0145874023438	227.1956176757813	-1124.006958007813	-254.7557678222657	222.6054077148438	-1082.865844726563	-309.5327758789063	168.0084228515625	-1050.755249023438	-405.7901306152345	78.09757232666017	-1111.8759765625	-387.0974426269532	89.12972259521486	-1025.496337890625	-470.8051757812501	44.28234100341798	-1068.830688476563	-260.9848327636719	53.48938369750978	-1042.382080078125	-254.3398742675782	53.80045318603517	-1081.135620117188	-271.0798034667969	43.03847885131837	-1132.67626953125	-399.1285400390626	523.7073974609376	-708.2454223632814	-331.1370544433594	524.3683471679689	-697.2854003906251	-311.8475036621094	550.1121826171876	-711.8070678710939	-285.1504516601563	452.4651794433595	-695.5845947265626	-242.9138336181641	418.2583618164064	-693.6280517578126	-220.3671875000001	414.307586669922	-797.4693603515627	-223.4656524658204	283.4604187011719	-713.0596923828126	-321.9621582031251	239.2304687500001	-688.3233642578126	-281.7178039550782	219.5771942138672	-704.7764892578126	-290.8905029296876	176.253662109375	-742.6051635742189	-404.7047119140626	78.22155761718751	-713.2487792968751	-382.5039672851563	88.90908813476564	-796.8519287109377	-465.9851989746095	50.99534606933595	-761.3157348632814	-257.7846374511719	51.91374588012697	-773.9168090820315	-255.7962799072266	55.62156295776369	-728.4780273437501	-283.6348266601563	35.42121887207032	-675.4756469726564	
